<svg width="16" height="12" viewBox="0 0 16 12" fill="none" xmlns="http://www.w3.org/2000/svg">
<path d="M5.08262 0.966014C6.33381 0.465387 7.08019 0.166748 7.99967 0.166748C8.91916 0.166748 9.66553 0.465386 10.9167 0.966012L12.8964 1.75788C13.5328 2.01242 14.0482 2.21859 14.402 2.40409C14.5811 2.49797 14.7546 2.6044 14.8883 2.73271C15.0258 2.86454 15.1663 3.06447 15.1663 3.33341C15.1663 3.60236 15.0258 3.80229 14.8883 3.93412C14.7546 4.06243 14.5811 4.16886 14.402 4.26274C14.0482 4.44824 13.5328 4.6544 12.8964 4.90895L10.9167 5.70082C9.66553 6.20144 8.91916 6.50008 7.99967 6.50008C7.08019 6.50008 6.33382 6.20144 5.08263 5.70082L3.10297 4.90895C2.46659 4.65441 1.95114 4.44824 1.59732 4.26274C1.41825 4.16886 1.24478 4.06243 1.11101 3.93412C0.973573 3.80229 0.833008 3.60236 0.833008 3.33341C0.833008 3.06447 0.973573 2.86454 1.11101 2.73271C1.24478 2.6044 1.41825 2.49797 1.59732 2.40409C1.95115 2.21859 2.46659 2.01242 3.10298 1.75788L5.08262 0.966014Z" fill="#969696"/>
<path fill-rule="evenodd" clip-rule="evenodd" d="M1.66669 5.62772C1.66669 5.62772 1.66669 5.62772 1.66669 5.62772L1.66576 5.62688L1.66808 5.62891C1.67102 5.63145 1.67649 5.63614 1.68449 5.64282C1.70049 5.65618 1.72662 5.6775 1.76287 5.70551C1.83537 5.76154 1.94827 5.84428 2.10154 5.94368C2.40811 6.1425 2.8758 6.40771 3.50459 6.65923L5.3769 7.40815C6.72679 7.94811 7.29273 8.16675 7.99967 8.16675C8.70661 8.16675 9.27256 7.94811 10.6224 7.40815L12.4948 6.65923C13.1235 6.40771 13.5912 6.1425 13.8978 5.94368C14.0511 5.84428 14.164 5.76154 14.2365 5.70551C14.2727 5.6775 14.2989 5.65618 14.3149 5.64282C14.3229 5.63614 14.3283 5.63145 14.3313 5.62891L14.3327 5.62772C14.333 5.6274 14.3334 5.62708 14.3337 5.62676C14.5393 5.44357 14.8545 5.46107 15.0385 5.6662C15.2229 5.87176 15.2058 6.18788 15.0002 6.37227L14.6663 6.00008C15.0002 6.37227 15.0003 6.37218 15.0002 6.37227L14.9993 6.3731L14.9981 6.37414L14.995 6.37687L14.9859 6.38485C14.9785 6.39127 14.9684 6.39985 14.9558 6.41044C14.9304 6.43162 14.8945 6.46083 14.848 6.49677C14.755 6.56863 14.6196 6.66744 14.4419 6.78269C14.0865 7.01317 13.5613 7.30965 12.8661 7.58771L10.9938 8.33663C10.9679 8.347 10.9422 8.35728 10.9167 8.36748C9.66553 8.86811 8.91916 9.16675 7.99967 9.16675C7.08019 9.16675 6.33381 8.86811 5.08262 8.36748C5.05713 8.35728 5.03143 8.347 5.00551 8.33663L3.1332 7.58771C2.43806 7.30965 1.91282 7.01317 1.55742 6.78269C1.37971 6.66744 1.24438 6.56863 1.15139 6.49677C1.10489 6.46083 1.06895 6.43162 1.04359 6.41044C1.0309 6.39985 1.02085 6.39127 1.01345 6.38485L1.00431 6.37687L1.00123 6.37414L1.00006 6.3731L0.999339 6.37246C0.999234 6.37236 0.999131 6.37227 1.33301 6.00008L0.999339 6.37246C0.793784 6.18806 0.776422 5.87176 0.960817 5.6662C1.14484 5.46106 1.46017 5.44367 1.66576 5.62688M1.66669 5.62772C1.66669 5.62772 1.66669 5.62772 1.66669 5.62772V5.62772ZM1.66565 8.29345C1.46006 8.11023 1.14484 8.12773 0.960816 8.33287L1.66565 8.29345ZM1.66565 8.29345L1.66808 8.29558C1.67102 8.29812 1.67649 8.30281 1.68449 8.30949C1.70049 8.32285 1.72662 8.34417 1.76287 8.37218C1.83537 8.4282 1.94827 8.51095 2.10154 8.61035C2.40811 8.80917 2.8758 9.07438 3.50459 9.3259L5.3769 10.0748C6.72679 10.6148 7.29273 10.8334 7.99967 10.8334C8.70661 10.8334 9.27256 10.6148 10.6224 10.0748L12.4948 9.3259C13.1235 9.07438 13.5912 8.80917 13.8978 8.61035C14.0511 8.51095 14.164 8.4282 14.2365 8.37218C14.2727 8.34417 14.2989 8.32285 14.3149 8.30949C14.3229 8.30281 14.3283 8.29812 14.3313 8.29558L14.3327 8.29438C14.333 8.29406 14.3334 8.29374 14.3337 8.29342C14.5393 8.11023 14.8545 8.12774 15.0385 8.33287C15.2229 8.53843 15.2058 8.85454 15.0002 9.03894L14.6774 8.6791C15.0002 9.03894 15.0003 9.03885 15.0002 9.03894L14.9993 9.03977L14.9981 9.04081L14.995 9.04354L14.9859 9.05152C14.9785 9.05793 14.9684 9.06652 14.9558 9.07711C14.9304 9.09829 14.8945 9.1275 14.848 9.16344C14.755 9.2353 14.6196 9.33411 14.4419 9.44936C14.0865 9.67984 13.5613 9.97632 12.8661 10.2544L10.9938 11.0033C10.9679 11.0137 10.9422 11.0239 10.9167 11.0342C9.66553 11.5348 8.91916 11.8334 7.99967 11.8334C7.08019 11.8334 6.33382 11.5348 5.08263 11.0342C5.05713 11.0239 5.03143 11.0137 5.00551 11.0033L3.1332 10.2544C2.43806 9.97632 1.91282 9.67984 1.55742 9.44936C1.37971 9.33411 1.24438 9.2353 1.15139 9.16344C1.10489 9.1275 1.06895 9.09829 1.04359 9.07711C1.0309 9.06652 1.02085 9.05793 1.01345 9.05152L1.00431 9.04354L1.00123 9.04081L1.00006 9.03977L0.999339 9.03913C0.999234 9.03903 0.999131 9.03894 1.33301 8.66675L0.999339 9.03913C0.793784 8.85473 0.776422 8.53843 0.960816 8.33287" fill="#969696"/>
</svg>
